<svg width="304" height="80" xmlns="http://www.w3.org/2000/svg"><path d="M129.956 80l-.016-8.327-3.88 6.94h-.706l-3.881-6.89V80H120V68.571h1.258l4.48 8.033 4.418-8.033h1.257L131.429 80zm-24.945-1.51c-.708-.247-1.263-.566-1.668-.957l.534-1.173c.385.362.879.654 1.48.88a5.248 5.248 0 001.858.339c.837 0 1.463-.148 1.877-.444.415-.295.621-.69.621-1.181 0-.362-.113-.655-.34-.881a2.24 2.24 0 00-.837-.52c-.332-.12-.801-.254-1.408-.406-.762-.19-1.375-.38-1.843-.571a3.034 3.034 0 01-1.198-.88c-.333-.396-.499-.932-.499-1.603 0-.561.142-1.069.427-1.52.283-.451.715-.812 1.292-1.083.578-.271 1.296-.407 2.153-.407.597 0 1.184.08 1.762.241.578.16 1.074.39 1.488.693l-.476 1.203a5.15 5.15 0 00-2.774-.858c-.819 0-1.433.156-1.842.467-.41.31-.614.713-.614 1.204 0 .36.116.654.347.88.23.226.517.402.86.527.34.125.805.259 1.393.399.76.191 1.372.382 1.835.571.462.19.86.482 1.191.873.333.39.499.919.499 1.58 0 .552-.145 1.057-.434 1.513-.289.456-.727.817-1.314 1.083-.587.265-1.31.399-2.166.399a6.669 6.669 0 01-2.204-.369m42.467-2.652l-2.351-5.6-2.35 5.6h4.7zm.545 1.306h-5.793L141.032 80h-1.603l4.935-11.429h1.541L150.857 80h-1.635l-1.2-2.857zm16.267-2.677c.527-.447.792-1.083.792-1.911 0-.827-.265-1.461-.792-1.901-.529-.442-1.294-.662-2.298-.662h-2.694v5.142h2.694c1.004 0 1.77-.222 2.298-.668zm.84 5.534l-2.394-3.51c-.295.021-.527.033-.696.033h-2.742V80h-1.584V68.571h4.326c1.436 0 2.567.355 3.391 1.062.823.707 1.236 1.68 1.236 2.922 0 .882-.212 1.633-.634 2.254-.423.62-1.025 1.071-1.806 1.355l2.63 3.836h-1.728zm12.374-10.008h-3.79v-1.42h9.143v1.42h-3.79V80h-1.563zm26.286 0H200v-1.42h9.143v1.42h-3.79V80h-1.563zm21.353 8.588V80h-8V68.571h7.78v1.421h-6.205v3.51h5.528v1.389h-5.528v3.688zM264 80h1.143V68.571H264zm-12.21-10.008H248v-1.42h9.143v1.42h-3.79V80h-1.563zM235.3 78.49c-.708-.247-1.265-.566-1.669-.957l.535-1.173c.385.362.879.654 1.48.88a5.241 5.241 0 001.856.339c.839 0 1.465-.148 1.878-.444.415-.295.622-.69.622-1.181 0-.362-.113-.655-.34-.881a2.246 2.246 0 00-.837-.52c-.333-.12-.801-.254-1.41-.406-.76-.19-1.374-.38-1.84-.571a3.043 3.043 0 01-1.2-.88c-.332-.396-.499-.932-.499-1.603 0-.561.143-1.069.426-1.52.285-.451.715-.812 1.293-1.083.579-.271 1.296-.407 2.153-.407.597 0 1.185.08 1.762.241a4.56 4.56 0 011.488.693l-.476 1.203a5.15 5.15 0 00-2.774-.858c-.819 0-1.432.156-1.842.467-.409.31-.613.713-.613 1.204 0 .36.115.654.346.88.231.226.518.402.86.527.342.125.806.259 1.394.399.76.191 1.372.382 1.835.571.462.19.858.482 1.191.873.333.39.498.919.498 1.58a2.77 2.77 0 01-.433 1.513c-.289.456-.727.817-1.315 1.083-.587.265-1.309.399-2.167.399-.76 0-1.494-.123-2.202-.369m49.271-9.918V80h-1.245l-6.379-8.522V80h-1.518V68.571h1.245l6.379 8.523V68.57zm15.695 5.651h1.364v4.357a5.131 5.131 0 01-1.72 1.053 5.758 5.758 0 01-2.043.368c-1.003 0-1.907-.248-2.711-.743a5.206 5.206 0 01-1.896-2.042c-.46-.868-.689-1.844-.689-2.93 0-1.085.23-2.063.689-2.936a5.122 5.122 0 011.902-2.043c.81-.49 1.72-.735 2.733-.735.796 0 1.517.147 2.165.44.649.293 1.2.721 1.654 1.284l-.88.99c-.795-.862-1.755-1.293-2.882-1.293-.757 0-1.437.184-2.037.55a3.823 3.823 0 00-1.413 1.533c-.341.654-.51 1.392-.51 2.21 0 .81.169 1.54.51 2.195.341.655.81 1.17 1.413 1.541.6.373 1.275.558 2.023.558.89 0 1.666-.239 2.328-.718v-3.64zM110.443 11.429h-6.018V21.96h-7.282v4.453h7.282v20.742c0 3.665 1.002 6.434 3.009 8.313 2.005 1.88 4.792 2.818 8.359 2.818 1.931 0 3.665-.233 5.2-.697v-4.8a12.903 12.903 0 01-4.012.627c-2.08 0-3.69-.521-4.83-1.565-1.14-1.044-1.708-2.864-1.708-5.462V26.413h10.7V21.96h-10.7V11.43zm22.144 18.504c2.002-1.775 4.599-2.661 7.791-2.661 3.194 0 5.69.864 7.49 2.591 1.797 1.73 2.85 4.252 3.154 7.567h-22.275c.558-3.223 1.837-5.72 3.84-7.497m7.716-7.076c-3.497 0-6.614.771-9.351 2.312-2.737 1.542-4.865 3.703-6.386 6.48-1.52 2.78-2.28 5.968-2.28 9.564 0 5.652 1.697 10.101 5.093 13.347 3.395 3.246 8.084 4.869 14.065 4.869 2.736 0 5.408-.42 8.02-1.262 2.61-.84 4.751-1.985 6.423-3.433l-2.052-4.133c-3.75 2.757-7.857 4.133-12.315 4.133-4.208 0-7.413-1.144-9.617-3.433-2.051-2.128-3.158-5.22-3.344-9.25h28.012v-1.959c0-5.37-1.444-9.586-4.332-12.645-2.89-3.059-6.868-4.59-11.936-4.59m38.362 16.955l-6.102-1.471c-1.963-.468-3.387-1.121-4.272-1.962-.886-.84-1.328-1.985-1.328-3.432 0-1.728.705-3.072 2.118-4.03 1.411-.957 3.41-1.436 5.994-1.436 3.877 0 7.514 1.379 10.912 4.133l1.938-4.133c-1.531-1.494-3.422-2.638-5.671-3.433-2.25-.793-4.642-1.19-7.179-1.19-4.164 0-7.514.968-10.05 2.907-2.538 1.939-3.805 4.449-3.805 7.531 0 2.336.825 4.344 2.477 6.025 1.65 1.682 3.984 2.85 7 3.504l6.101 1.4c2.201.468 3.78 1.121 4.738 1.963.958.84 1.436 1.961 1.436 3.362 0 1.728-.707 3.048-2.118 3.959-1.412.91-3.481 1.366-6.21 1.366-2.489 0-4.738-.327-6.747-.982-2.01-.653-3.997-1.727-5.96-3.222L160 54.875c3.541 3.036 8.35 4.554 14.429 4.554 4.354 0 7.8-.911 10.338-2.733 2.536-1.821 3.804-4.25 3.804-7.287 0-2.521-.814-4.564-2.44-6.13-1.628-1.564-4.117-2.72-7.466-3.467m20.939-2.382c.558-3.222 1.836-5.72 3.84-7.497 2.001-1.774 4.6-2.661 7.791-2.661 3.194 0 5.69.864 7.488 2.591 1.798 1.73 2.852 4.252 3.156 7.567h-22.275zm11.556-14.573c-3.497 0-6.615.771-9.35 2.312-2.738 1.542-4.866 3.703-6.387 6.48-1.52 2.78-2.28 5.968-2.28 9.564 0 5.652 1.697 10.101 5.094 13.347 3.394 3.246 8.082 4.869 14.063 4.869 2.736 0 5.41-.42 8.02-1.262 2.61-.84 4.751-1.985 6.424-3.432l-2.053-4.134c-3.75 2.757-7.856 4.134-12.315 4.134-4.207 0-7.413-1.145-9.616-3.434-2.051-2.127-3.159-5.22-3.345-9.249h28.014v-1.96c0-5.37-1.445-9.586-4.334-12.645-2.89-3.059-6.868-4.59-11.935-4.59zm40.575 0c-.087 0-.97.026-1.24.044-7.728.345-10.982 4.619-11.646 5.641l.007-4.833h-5.713v35.72h6v-20.45c0-3.456 1.037-6.203 3.11-8.239 2.075-2.034 4.84-3.054 8.297-3.054 2.963 0 5.136.77 6.519 2.309 1.382 1.538 2.073 3.965 2.073 7.278V59.43h6V36.99c0-9.42-4.47-14.132-13.407-14.132m46.512 25.134c-.948 2.154-2.393 3.825-4.298 4.967-1.94 1.163-4.884 1.755-7.613 1.755-2.855 0-5.265-.561-6.821-1.667-1.53-1.085-2.273-2.532-2.273-4.423 0-3.872 2.963-5.755 9.062-5.755h11.943v5.123zm1.996-21.58c-2.69-2.36-6.575-3.555-11.555-3.555-2.972 0-5.841.421-8.53 1.255-2.697.837-5.046 2.041-6.978 3.58l-.346.276 2.821 4.155.456-.375c1.505-1.24 3.335-2.226 5.44-2.935a20.77 20.77 0 016.64-1.07c3.303 0 5.836.752 7.53 2.233 1.676 1.469 2.526 3.89 2.526 6.744v1.633h-11.333c-5.111 0-8.909.955-11.285 2.84C273.22 43.1 272 45.644 272 48.756c0 3.205 1.307 5.82 3.885 7.771 2.539 1.925 5.986 2.9 10.249 2.9 3.092 0 5.805-.531 8.061-1.578 1.73-.803 3.159-1.857 4.265-3.148v4.394H304V36.92c0-4.6-1.058-8.136-3.757-10.508zM49.807 58.48c-5.116 0-9.099-1.465-11.838-4.352-3.573-3.77-3.605-8.636-3.584-9.445v-7.575h-4.192a2.866 2.866 0 110-5.732h4.192v-6.999a2.868 2.868 0 015.734 0v20.35c0 .05-.002.102-.004.153 0 .006-.085 3.129 2.055 5.345 1.616 1.673 4.185 2.522 7.637 2.522a2.867 2.867 0 010 5.733m-1.81-28.082a3.844 3.844 0 110 7.689 3.845 3.845 0 010-7.689M80 40.001C80 17.908 62.091 0 40 0S0 17.908 0 40.001c0 21.383 16.78 38.845 37.89 39.945a11.6 11.6 0 001.1.054h35.588c0-5.059-1.686-9.397-5.054-13.015C76.03 59.871 80 50.4 80 40.001" fill="#FFF" fill-rule="evenodd"/></svg>